<svg width="15" height="15" viewBox="0 0 15 15" fill="none" xmlns="http://www.w3.org/2000/svg">
<path d="M7.3125 2.65625C7.05363 2.65624 6.84375 2.86611 6.84375 3.12499C6.84375 3.38388 7.05363 3.59374 7.3125 3.59375V2.65625ZM10.3594 6.2125H10.8281V6.21177L10.3594 6.2125ZM9.46663 8.39562L9.085 8.1235C9.07944 8.13125 9.07413 8.13925 9.06906 8.14731L9.46663 8.39562ZM8.58181 9.8125L8.18425 9.56419L8.18263 9.56681L8.58181 9.8125ZM7.3125 11.875L6.91356 12.1211C6.99894 12.2596 7.15006 12.3438 7.31275 12.3437C7.47544 12.3437 7.62644 12.2593 7.71169 12.1207L7.3125 11.875ZM6.04318 9.81687L6.44219 9.57081L6.44094 9.56887L6.04318 9.81687ZM5.15837 8.3975L5.55616 8.1495C5.55111 8.14144 5.54583 8.1335 5.54029 8.12575L5.15837 8.3975ZM6.14678 3.36188L6.32794 3.7942L6.32875 3.79386L6.14678 3.36188ZM7.31319 3.59375C7.57213 3.59336 7.78163 3.38318 7.78125 3.12429C7.78088 2.86541 7.57069 2.65586 7.31181 2.65625L7.31319 3.59375ZM7.3125 6.77313C7.05363 6.77313 6.84375 6.983 6.84375 7.24188C6.84375 7.50075 7.05363 7.71063 7.3125 7.71063V6.77313ZM7.3125 4.71438C7.05363 4.71438 6.84375 4.92424 6.84375 5.18313C6.84375 5.44201 7.05363 5.65188 7.3125 5.65188V4.71438ZM7.32438 7.71425C7.58313 7.70769 7.78763 7.49256 7.78113 7.23375C7.77456 6.975 7.55944 6.7705 7.30069 6.777L7.32438 7.71425ZM7.30069 5.6561C7.55944 5.66264 7.77456 5.45814 7.78113 5.19934C7.78763 4.94054 7.58313 4.72544 7.32438 4.7189L7.30069 5.6561ZM7.3125 3.59375C7.64975 3.59376 7.98413 3.66109 8.29694 3.79228L8.65969 2.92779C8.2325 2.74864 7.77475 2.65626 7.3125 2.65625V3.59375ZM8.29694 3.79228C8.7655 3.98897 9.16856 4.32426 9.45425 4.75789L10.2371 4.24211C9.85063 3.65548 9.30225 3.19751 8.65969 2.92779L8.29694 3.79228ZM9.45425 4.75789C9.73725 5.18636 9.88981 5.69348 9.89063 6.21323L10.8281 6.21177C10.8271 5.51034 10.6219 4.82473 10.2371 4.24211L9.45425 4.75789ZM9.89063 6.2125C9.89063 6.56525 9.83744 6.82281 9.72225 7.08919C9.6005 7.37069 9.40381 7.67637 9.085 8.1235L9.84831 8.66775C10.1681 8.21925 10.4178 7.84275 10.5828 7.46131C10.7543 7.06469 10.8281 6.6785 10.8281 6.2125H9.89063ZM9.06906 8.14731L8.18425 9.56419L8.97944 10.0608L9.86425 8.64394L9.06906 8.14731ZM8.18263 9.56681L6.91331 11.6293L7.71169 12.1207L8.98106 10.0582L8.18263 9.56681ZM7.7115 11.6289L6.44219 9.57081L5.64421 10.0629L6.91356 12.1211L7.7115 11.6289ZM6.44094 9.56887L5.55616 8.1495L4.76058 8.6455L5.6454 10.0649L6.44094 9.56887ZM5.54029 8.12575C5.22128 7.67737 5.02451 7.37169 4.90271 7.09025C4.78755 6.82413 4.73438 6.56706 4.73438 6.21438L3.79688 6.21392C3.79688 6.67998 3.87078 7.06619 4.04233 7.46256C4.20723 7.84362 4.45683 8.22013 4.77644 8.66925L5.54029 8.12575ZM4.73438 6.21438C4.73489 5.69406 4.88724 5.18724 5.17049 4.75831L4.38818 4.24169C4.00303 4.82491 3.79756 5.51176 3.79688 6.21392L4.73438 6.21438ZM5.17049 4.75831C5.4564 4.32528 5.8596 3.99046 6.32794 3.7942L5.96561 2.92955C5.32333 3.19869 4.77498 3.65585 4.38818 4.24169L5.17049 4.75831ZM6.32875 3.79386C6.6415 3.66213 6.97581 3.59426 7.31319 3.59375L7.31181 2.65625C6.84944 2.65695 6.39188 2.74999 5.96481 2.92989L6.32875 3.79386ZM7.3125 7.71063C7.84438 7.71063 8.32981 7.41963 8.59019 6.95713L7.77319 6.49725C7.675 6.67175 7.49775 6.77313 7.3125 6.77313V7.71063ZM8.59019 6.95713C8.84981 6.49588 8.84981 5.92913 8.59019 5.46788L7.77319 5.92775C7.87213 6.10348 7.87213 6.3215 7.77319 6.49725L8.59019 6.95713ZM8.59019 5.46788C8.32981 5.0054 7.84438 4.71438 7.3125 4.71438V5.65188C7.49775 5.65188 7.675 5.75325 7.77319 5.92775L8.59019 5.46788ZM7.30069 6.777C7.1125 6.78175 6.93056 6.68175 6.82938 6.50531L6.01615 6.97181C6.28456 7.43975 6.78381 7.72788 7.32438 7.71425L7.30069 6.777ZM6.82938 6.50531C6.72738 6.32756 6.72738 6.10554 6.82938 5.92781L6.01615 5.46133C5.74847 5.92796 5.74847 6.50519 6.01615 6.97181L6.82938 6.50531ZM6.82938 5.92781C6.93056 5.75141 7.1125 5.65134 7.30069 5.6561L7.32438 4.7189C6.78381 4.70524 6.28456 4.99338 6.01615 5.46133L6.82938 5.92781Z" fill="#068330"/>
</svg>
