<svg width="271" height="126" viewBox="0 0 271 126" fill="none" xmlns="http://www.w3.org/2000/svg">
<path d="M2.58023 117H8.61023V124H7.63023V117.87H3.57023V124H2.58023V117ZM10.6331 124V118.7H11.5931V120.95H14.6131V118.7H15.5731V124H14.6131V121.78H11.5931V124H10.6331Z" fill="white"/>
<path d="M95.5177 117H101.548V124H100.568V117.87H96.5077V124H95.5177V117ZM107.521 118.7V119.54H105.581V124H104.621V119.54H102.681V118.7H107.521Z" fill="white"/>
<path d="M192.749 120.37C193.689 120.6 194.189 121.18 194.189 122.09C194.189 123.29 193.309 124 191.589 124H188.389V117H191.399C192.919 117 193.839 117.63 193.839 118.8C193.839 119.57 193.429 120.11 192.749 120.37ZM189.379 117.79V120.08H191.329C192.289 120.08 192.829 119.69 192.829 118.94C192.829 118.19 192.289 117.79 191.329 117.79H189.379ZM191.569 123.21C192.619 123.21 193.179 122.83 193.179 122.01C193.179 121.2 192.619 120.84 191.569 120.84H189.379V123.21H191.569ZM199.65 118.7V119.54H197.71V124H196.75V119.54H194.81V118.7H199.65Z" fill="white"/>
<path d="M31.7488 120.37C32.6888 120.6 33.1888 121.18 33.1888 122.09C33.1888 123.29 32.3088 124 30.5888 124H27.3888V117H30.3988C31.9188 117 32.8388 117.63 32.8388 118.8C32.8388 119.57 32.4288 120.11 31.7488 120.37ZM28.3788 117.79V120.08H30.3288C31.2888 120.08 31.8288 119.69 31.8288 118.94C31.8288 118.19 31.2888 117.79 30.3288 117.79H28.3788ZM30.5688 123.21C31.6188 123.21 32.1788 122.83 32.1788 122.01C32.1788 121.2 31.6188 120.84 30.5688 120.84H28.3788V123.21H30.5688ZM38.6495 118.7V119.54H36.7095V124H35.7495V119.54H33.8095V118.7H38.6495Z" fill="white"/>
<path d="M121.394 124.08C119.274 124.08 117.694 122.57 117.694 120.5C117.694 118.43 119.274 116.92 121.404 116.92C122.484 116.92 123.424 117.29 124.064 118.01L123.414 118.64C122.874 118.07 122.214 117.81 121.444 117.81C119.864 117.81 118.694 118.95 118.694 120.5C118.694 122.05 119.864 123.19 121.444 123.19C122.214 123.19 122.874 122.92 123.414 122.35L124.064 122.98C123.424 123.7 122.484 124.08 121.394 124.08ZM127.835 118.88C129.335 118.88 130.385 119.94 130.385 121.46C130.385 123.02 129.265 124.08 127.645 124.08C125.835 124.08 124.825 122.78 124.825 120.55C124.825 118.36 125.715 117.17 127.545 116.77L129.965 116.23L130.105 117.11L127.875 117.59C126.495 117.89 125.845 118.57 125.745 119.95C126.195 119.27 126.945 118.88 127.835 118.88ZM127.665 123.28C128.695 123.28 129.405 122.54 129.405 121.49C129.405 120.44 128.705 119.74 127.665 119.74C126.625 119.74 125.915 120.44 125.915 121.49C125.915 122.54 126.645 123.28 127.665 123.28Z" fill="white"/>
<path d="M213.689 124.08C211.569 124.08 209.989 122.57 209.989 120.5C209.989 118.43 211.569 116.92 213.699 116.92C214.779 116.92 215.719 117.29 216.359 118.01L215.709 118.64C215.169 118.07 214.509 117.81 213.739 117.81C212.159 117.81 210.989 118.95 210.989 120.5C210.989 122.05 212.159 123.19 213.739 123.19C214.509 123.19 215.169 122.92 215.709 122.35L216.359 122.98C215.719 123.7 214.779 124.08 213.689 124.08ZM220.386 118.65C221.936 118.65 223.066 119.73 223.066 121.35C223.066 122.98 221.936 124.06 220.386 124.06C219.636 124.06 218.976 123.77 218.536 123.2V125.94H217.576V118.7H218.496V119.54C218.926 118.95 219.606 118.65 220.386 118.65ZM220.306 123.22C221.326 123.22 222.096 122.48 222.096 121.35C222.096 120.23 221.326 119.49 220.306 119.49C219.296 119.49 218.526 120.23 218.526 121.35C218.526 122.48 219.296 123.22 220.306 123.22Z" fill="white"/>
<path d="M52.6888 124.08C50.5688 124.08 48.9888 122.57 48.9888 120.5C48.9888 118.43 50.5688 116.92 52.6988 116.92C53.7788 116.92 54.7188 117.29 55.3588 118.01L54.7088 118.64C54.1688 118.07 53.5088 117.81 52.7388 117.81C51.1588 117.81 49.9888 118.95 49.9888 120.5C49.9888 122.05 51.1588 123.19 52.7388 123.19C53.5088 123.19 54.1688 122.92 54.7088 122.35L55.3588 122.98C54.7188 123.7 53.7788 124.08 52.6888 124.08ZM59.3865 118.65C60.9365 118.65 62.0665 119.73 62.0665 121.35C62.0665 122.98 60.9365 124.06 59.3865 124.06C58.6365 124.06 57.9765 123.77 57.5365 123.2V125.94H56.5765V118.7H57.4965V119.54C57.9265 118.95 58.6065 118.65 59.3865 118.65ZM59.3065 123.22C60.3265 123.22 61.0965 122.48 61.0965 121.35C61.0965 120.23 60.3265 119.49 59.3065 119.49C58.2965 119.49 57.5265 120.23 57.5265 121.35C57.5265 122.48 58.2965 123.22 59.3065 123.22Z" fill="white"/>
<path d="M145.858 120.37C146.798 120.6 147.298 121.18 147.298 122.09C147.298 123.29 146.418 124 144.698 124H141.498V117H144.508C146.028 117 146.948 117.63 146.948 118.8C146.948 119.57 146.538 120.11 145.858 120.37ZM142.488 117.79V120.08H144.438C145.398 120.08 145.938 119.69 145.938 118.94C145.938 118.19 145.398 117.79 144.438 117.79H142.488ZM144.678 123.21C145.728 123.21 146.288 122.83 146.288 122.01C146.288 121.2 145.728 120.84 144.678 120.84H142.488V123.21H144.678ZM151.119 124.06C149.489 124.06 148.319 122.93 148.319 121.35C148.319 119.77 149.489 118.65 151.119 118.65C152.069 118.65 152.859 119.04 153.279 119.78L152.549 120.25C152.209 119.73 151.689 119.49 151.109 119.49C150.069 119.49 149.289 120.22 149.289 121.35C149.289 122.5 150.069 123.22 151.109 123.22C151.689 123.22 152.209 122.98 152.549 122.46L153.279 122.92C152.859 123.66 152.069 124.06 151.119 124.06Z" fill="white"/>
<path d="M238.633 117H239.623V124H238.633V121.23C237.913 121.51 237.213 121.66 236.583 121.66C234.873 121.66 233.893 120.8 233.893 119.27V117H234.873V119.16C234.873 120.2 235.543 120.78 236.693 120.78C237.323 120.78 237.993 120.63 238.633 120.34V117ZM245.596 118.7V119.54H243.656V124H242.696V119.54H240.756V118.7H245.596Z" fill="white"/>
<path d="M77.6325 117H78.6225V124H77.6325V121.23C76.9125 121.51 76.2125 121.66 75.5825 121.66C73.8725 121.66 72.8925 120.8 72.8925 119.27V117H73.8725V119.16C73.8725 120.2 74.5425 120.78 75.6925 120.78C76.3225 120.78 76.9925 120.63 77.6325 120.34V117ZM84.5958 118.7V119.54H82.6558V124H81.6958V119.54H79.7558V118.7H84.5958Z" fill="white"/>
<path d="M163.58 117H169.61V124H168.63V117.87H164.57V124H163.58V117ZM171.633 124V118.7H172.593V120.95H175.613V118.7H176.573V124H175.613V121.78H172.593V124H171.633Z" fill="white"/>
<path d="M256.518 117H262.548V124H261.568V117.87H257.508V124H256.518V117ZM268.521 118.7V119.54H266.581V124H265.621V119.54H263.681V118.7H268.521Z" fill="white"/>
<rect y="57" width="18" height="52" fill="#068330"/>
<rect x="253" y="57" width="18" height="52" fill="#068330"/>
<rect x="23" y="50" width="18" height="59" fill="#068330"/>
<rect x="46" y="66" width="18" height="43" fill="#068330"/>
<rect x="69" y="37" width="18" height="72" fill="#068330"/>
<rect x="92" y="77" width="18" height="32" fill="#068330"/>
<rect x="115" y="19" width="18" height="90" fill="#068330"/>
<rect x="138" y="37" width="18" height="72" fill="#068330"/>
<rect x="161" width="18" height="109" fill="#068330"/>
<rect x="184" y="46" width="18" height="63" fill="#068330"/>
<rect x="207" y="27" width="18" height="82" fill="#068330"/>
<rect x="230" y="11" width="18" height="98" fill="#068330"/>
<path d="M8.81637 100.63C10.8864 100.63 11.7064 101.56 11.7064 102.8C11.7064 104.04 10.7964 105.12 8.79637 105.12C7.82637 105.12 6.80637 104.85 6.12637 104.37L6.76637 103.13C7.29637 103.53 8.02637 103.76 8.75637 103.76C9.56637 103.76 10.0664 103.42 10.0664 102.85C10.0664 102.3 9.70637 101.94 8.43637 101.94H6.64637L7.00637 98H11.2764V99.3H8.35637L8.24637 100.63H8.81637Z" fill="white"/>
<path d="M101.701 100.85C102.961 101.05 103.601 101.83 103.601 102.86C103.601 104.04 102.691 105.12 100.701 105.12C99.721 105.12 98.711 104.85 98.031 104.37L98.661 103.13C99.191 103.53 99.931 103.76 100.661 103.76C101.471 103.76 101.971 103.43 101.971 102.86C101.971 102.33 101.581 102 100.661 102H99.921V100.93L101.361 99.3H98.381V98H103.281V99.05L101.701 100.85Z" fill="white"/>
<path d="M194.076 100.61C195.426 100.61 196.486 101.47 196.486 102.79C196.486 104.22 195.316 105.12 193.836 105.12C191.906 105.12 190.706 103.91 190.706 101.65C190.706 99.23 192.166 97.88 194.276 97.88C195.016 97.88 195.736 98.05 196.226 98.36L195.626 99.55C195.236 99.29 194.786 99.2 194.316 99.2C193.146 99.2 192.396 99.89 192.346 101.23C192.756 100.82 193.346 100.61 194.076 100.61ZM193.746 103.91C194.436 103.91 194.916 103.51 194.916 102.87C194.916 102.23 194.446 101.82 193.726 101.82C193.016 101.82 192.516 102.26 192.516 102.87C192.516 103.47 192.966 103.91 193.746 103.91Z" fill="white"/>
<path d="M58.8527 102.21V103.53H57.7127V105H56.1327V103.53H52.3627V102.44L55.6627 98H57.3627L54.3027 102.21H56.1827V100.9H57.7127V102.21H58.8527Z" fill="white"/>
<path d="M144.659 98H150.269V99.05L147.669 105H145.909L148.419 99.32H146.099V100.46H144.659V98Z" fill="white"/>
<path d="M234.218 98H237.238V105H235.618V99.3H234.218V98ZM241.454 105.12C239.734 105.12 238.454 103.81 238.454 101.5C238.454 99.19 239.734 97.88 241.454 97.88C243.184 97.88 244.454 99.19 244.454 101.5C244.454 103.81 243.184 105.12 241.454 105.12ZM241.454 103.75C242.264 103.75 242.824 103.09 242.824 101.5C242.824 99.91 242.264 99.25 241.454 99.25C240.654 99.25 240.094 99.91 240.094 101.5C240.094 103.09 240.654 103.75 241.454 103.75Z" fill="white"/>
<path d="M33.0764 100.61C34.4264 100.61 35.4864 101.47 35.4864 102.79C35.4864 104.22 34.3164 105.12 32.8364 105.12C30.9064 105.12 29.7064 103.91 29.7064 101.65C29.7064 99.23 31.1664 97.88 33.2764 97.88C34.0164 97.88 34.7364 98.05 35.2264 98.36L34.6264 99.55C34.2364 99.29 33.7864 99.2 33.3164 99.2C32.1464 99.2 31.3964 99.89 31.3464 101.23C31.7564 100.82 32.3464 100.61 33.0764 100.61ZM32.7464 103.91C33.4364 103.91 33.9164 103.51 33.9164 102.87C33.9164 102.23 33.4464 101.82 32.7264 101.82C32.0164 101.82 31.5164 102.26 31.5164 102.87C31.5164 103.47 31.9664 103.91 32.7464 103.91Z" fill="white"/>
<path d="M124.166 97.88C126.106 97.88 127.296 99.09 127.296 101.35C127.296 103.77 125.846 105.12 123.726 105.12C122.986 105.12 122.276 104.95 121.786 104.64L122.386 103.45C122.766 103.71 123.216 103.8 123.696 103.8C124.856 103.8 125.616 103.11 125.666 101.76C125.256 102.17 124.656 102.39 123.926 102.39C122.576 102.39 121.516 101.53 121.516 100.21C121.516 98.78 122.686 97.88 124.166 97.88ZM124.286 101.18C124.996 101.18 125.486 100.74 125.486 100.13C125.486 99.53 125.036 99.09 124.266 99.09C123.576 99.09 123.096 99.49 123.096 100.13C123.096 100.77 123.566 101.18 124.286 101.18Z" fill="white"/>
<path d="M218.379 101.32C219.059 101.66 219.449 102.22 219.449 102.97C219.449 104.29 218.269 105.12 216.489 105.12C214.719 105.12 213.549 104.29 213.549 102.97C213.549 102.22 213.939 101.66 214.609 101.32C214.089 101 213.799 100.51 213.799 99.88C213.799 98.65 214.899 97.88 216.489 97.88C218.099 97.88 219.199 98.65 219.199 99.88C219.199 100.51 218.899 101 218.379 101.32ZM216.489 99.07C215.839 99.07 215.409 99.4 215.409 99.95C215.409 100.48 215.829 100.81 216.489 100.81C217.159 100.81 217.589 100.48 217.589 99.95C217.589 99.4 217.149 99.07 216.489 99.07ZM216.489 103.93C217.299 103.93 217.809 103.54 217.809 102.92C217.809 102.3 217.299 101.92 216.489 101.92C215.689 101.92 215.189 102.3 215.189 102.92C215.189 103.54 215.689 103.93 216.489 103.93Z" fill="white"/>
<path d="M75.6594 98H81.2694V99.05L78.6694 105H76.9094L79.4194 99.32H77.0994V100.46H75.6594V98Z" fill="white"/>
<path d="M166.154 98H169.174V105H167.554V99.3H166.154V98ZM170.07 98H173.09V105H171.47V99.3H170.07V98Z" fill="white"/>
<path d="M261.816 100.63C263.886 100.63 264.706 101.56 264.706 102.8C264.706 104.04 263.796 105.12 261.796 105.12C260.826 105.12 259.806 104.85 259.126 104.37L259.766 103.13C260.296 103.53 261.026 103.76 261.756 103.76C262.566 103.76 263.066 103.42 263.066 102.85C263.066 102.3 262.706 101.94 261.436 101.94H259.646L260.006 98H264.276V99.3H261.356L261.246 100.63H261.816Z" fill="white"/>
</svg>
